<svg width="15" height="27" viewBox="0 0 15 27" fill="none" xmlns="http://www.w3.org/2000/svg">
<path d="M5.14316 18.8409V18.6918C5.15973 17.1091 5.32545 15.8497 5.64031 14.9134C5.95518 13.977 6.40263 13.2189 6.98264 12.6388C7.56266 12.0588 8.25869 11.5244 9.07071 11.0355C9.55959 10.7372 9.99874 10.3851 10.3882 9.97905C10.7776 9.56475 11.0842 9.0883 11.3079 8.54972C11.5399 8.01113 11.6559 7.41454 11.6559 6.75994C11.6559 5.94792 11.4654 5.24361 11.0842 4.64702C10.7031 4.05043 10.1935 3.59055 9.55544 3.2674C8.91742 2.94425 8.20897 2.78267 7.43009 2.78267C6.75064 2.78267 6.09604 2.92353 5.46631 3.20525C4.83657 3.48698 4.31041 3.93028 3.88783 4.53516C3.46524 5.14003 3.22081 5.93134 3.15452 6.90909H0.0224165C0.0887044 5.50047 0.453288 4.29486 1.11617 3.29226C1.78733 2.28965 2.66979 1.5232 3.76354 0.992896C4.86557 0.462593 6.08776 0.197442 7.43009 0.197442C8.88842 0.197442 10.1562 0.487452 11.2334 1.06747C12.3188 1.64749 13.1557 2.44294 13.744 3.45383C14.3406 4.46472 14.6389 5.61648 14.6389 6.90909C14.6389 7.82055 14.498 8.645 14.2163 9.38246C13.9429 10.1199 13.5451 10.7786 13.0231 11.3587C12.5094 11.9387 11.8879 12.4524 11.1588 12.8999C10.4296 13.3556 9.84545 13.8362 9.40629 14.3416C8.96714 14.8388 8.64813 15.4312 8.44926 16.119C8.2504 16.8067 8.14268 17.6643 8.12611 18.6918V18.8409H5.14316ZM6.73406 26.1989C6.1209 26.1989 5.59474 25.9793 5.15558 25.5401C4.71643 25.101 4.49685 24.5748 4.49685 23.9616C4.49685 23.3485 4.71643 22.8223 5.15558 22.3832C5.59474 21.944 6.1209 21.7244 6.73406 21.7244C7.34723 21.7244 7.87339 21.944 8.31254 22.3832C8.7517 22.8223 8.97128 23.3485 8.97128 23.9616C8.97128 24.3677 8.86771 24.7405 8.66056 25.0803C8.46169 25.42 8.1924 25.6934 7.85267 25.9006C7.52123 26.0994 7.14836 26.1989 6.73406 26.1989Z" fill="#16481E"/>
</svg>
