<svg width="23" height="23" viewBox="0 0 23 23" fill="none" xmlns="http://www.w3.org/2000/svg">
<rect width="23" height="23" rx="4" fill="#16481E"/>
<path d="M5 5.5C4.72386 5.5 4.5 5.72386 4.5 6L4.5 10.5C4.5 10.7761 4.72386 11 5 11C5.27614 11 5.5 10.7761 5.5 10.5L5.5 6.5L9.5 6.5C9.77614 6.5 10 6.27614 10 6C10 5.72386 9.77614 5.5 9.5 5.5L5 5.5ZM17.7279 19.2279C18.0041 19.2279 18.2279 19.0041 18.2279 18.7279L18.2279 14.2279C18.2279 13.9518 18.0041 13.7279 17.7279 13.7279C17.4518 13.7279 17.2279 13.9518 17.2279 14.2279L17.2279 18.2279L13.2279 18.2279C12.9518 18.2279 12.7279 18.4518 12.7279 18.7279C12.7279 19.0041 12.9518 19.2279 13.2279 19.2279L17.7279 19.2279ZM4.64645 6.35355L17.3744 19.0815L18.0815 18.3744L5.35355 5.64645L4.64645 6.35355Z" fill="#5BDA6F"/>
<path d="M5 5.5C4.72386 5.5 4.5 5.72386 4.5 6L4.5 10.5C4.5 10.7761 4.72386 11 5 11C5.27614 11 5.5 10.7761 5.5 10.5L5.5 6.5L9.5 6.5C9.77614 6.5 10 6.27614 10 6C10 5.72386 9.77614 5.5 9.5 5.5L5 5.5ZM17.7279 19.2279C18.0041 19.2279 18.2279 19.0041 18.2279 18.7279L18.2279 14.2279C18.2279 13.9518 18.0041 13.7279 17.7279 13.7279C17.4518 13.7279 17.2279 13.9518 17.2279 14.2279L17.2279 18.2279L13.2279 18.2279C12.9518 18.2279 12.7279 18.4518 12.7279 18.7279C12.7279 19.0041 12.9518 19.2279 13.2279 19.2279L17.7279 19.2279ZM4.64645 6.35355L17.3744 19.0815L18.0815 18.3744L5.35355 5.64645L4.64645 6.35355Z" fill="#5BDA6F"/>
<path d="M5 5.5C4.72386 5.5 4.5 5.72386 4.5 6L4.5 10.5C4.5 10.7761 4.72386 11 5 11C5.27614 11 5.5 10.7761 5.5 10.5L5.5 6.5L9.5 6.5C9.77614 6.5 10 6.27614 10 6C10 5.72386 9.77614 5.5 9.5 5.5L5 5.5ZM17.7279 19.2279C18.0041 19.2279 18.2279 19.0041 18.2279 18.7279L18.2279 14.2279C18.2279 13.9518 18.0041 13.7279 17.7279 13.7279C17.4518 13.7279 17.2279 13.9518 17.2279 14.2279L17.2279 18.2279L13.2279 18.2279C12.9518 18.2279 12.7279 18.4518 12.7279 18.7279C12.7279 19.0041 12.9518 19.2279 13.2279 19.2279L17.7279 19.2279ZM4.64645 6.35355L17.3744 19.0815L18.0815 18.3744L5.35355 5.64645L4.64645 6.35355Z" fill="#5BDA6F"/>
</svg>
